Coordinates
version=1
nRows=7
nColumns=40
inDegrees=yes

Units are S.I. units (second, meters, Newtons, ...)
Angles are in degrees.

endheader
time	pelvis_tilt	pelvis_list	pelvis_rotation	pelvis_tx	pelvis_ty	pelvis_tz	hip_flexion_r	hip_adduction_r	hip_rotation_r	knee_angle_r	knee_angle_r_beta	ankle_angle_r	subtalar_angle_r	mtp_angle_r	hip_flexion_l	hip_adduction_l	hip_rotation_l	knee_angle_l	knee_angle_l_beta	ankle_angle_l	subtalar_angle_l	mtp_angle_l	lumbar_extension	lumbar_bending	lumbar_rotation	arm_flex_r	arm_add_r	arm_rot_r	elbow_flex_r	pro_sup_r	wrist_flex_r	wrist_dev_r	arm_flex_l	arm_add_l	arm_rot_l	elbow_flex_l	pro_sup_l	wrist_flex_l	wrist_dev_l
     56.14000000	     -5.24456150	     -3.64831291	     -9.37914446	      0.95767217	      0.92663836	      0.41692322	     28.05543578	     -1.26720723	     -5.90260741	     21.15793075	     21.15793075	      6.61533165	      3.70936133	      1.13224909	      7.71170254	     -2.40844869	    -10.80942323	     19.51676818	     19.51676818	     18.60658339	    -12.48825851	      2.26484130	    -10.16427563	      6.94146764	      1.13036978	    -18.41666960	    -11.73389618	    -18.38377247	     28.36959148	     47.30904411	      0.00000000	      0.00000000	     38.19580472	    -22.83220460	     -3.86360439	     66.14918337	     47.31442762	      0.00000000	      0.00000000
     56.16000000	     -5.14740564	     -3.39821607	     -9.73363010	      0.95768928	      0.92604406	      0.41986154	     27.26418200	     -1.26865587	     -6.92281502	     19.03187556	     19.03187556	      6.59922782	      6.87634836	      2.01318532	      6.71533455	     -2.22831369	    -11.45885835	     18.71021465	     18.71021465	     18.61321104	    -11.88794384	      1.37206727	    -10.19892774	      6.80232269	      1.27126543	    -19.05622204	    -11.55821078	    -18.48493706	     28.92786842	     47.25833375	      0.00000000	      0.00000000	     38.86773725	    -23.06414247	     -4.56195028	     67.64458462	     47.40428826	      0.00000000	      0.00000000
     56.18000000	     -5.26721479	     -3.16819959	    -10.00381751	      0.95772217	      0.92494139	      0.42301881	     26.73703393	     -1.06985109	     -7.11066250	     17.36574479	     17.36574479	      6.23925550	      8.13489374	      2.47440541	      6.16703520	     -2.10841630	    -11.77061503	     18.30057312	     18.30057312	     18.80264922	    -11.72902382	      1.03826932	     -9.95016633	      6.73732460	      1.33493821	    -19.24399146	    -11.37630335	    -18.48173011	     29.04288256	     47.24119109	      0.00000000	      0.00000000	     39.56068939	    -23.29296967	     -4.92840231	     68.37834577	     47.45109796	      0.00000000	      0.00000000
     56.20000000	     -5.29843910	     -2.95203421	    -10.25735549	      0.95814827	      0.92378512	      0.42633922	     26.31593946	     -1.01899050	     -7.66663200	     16.52197093	     16.52197093	      5.75751335	      9.60269499	      1.94868877	      5.48702160	     -2.01340752	    -12.20197331	     17.86009982	     17.86009982	     18.81837959	    -11.41501873	     -0.00040112	     -9.83831161	      6.68431944	      1.33434640	    -19.29332592	    -11.29699767	    -18.48861631	     29.38792109	     47.18648663	      0.00000000	      0.00000000	     39.72875834	    -23.42483420	     -6.17976032	     70.02223550	     47.58082969	      0.00000000	      0.00000000
     56.22000000	     -5.45885316	     -2.80677045	    -10.44397219	      0.95869175	      0.92240552	      0.42988824	     26.23014512	     -0.83270702	     -7.64677646	     16.41023661	     16.41023661	      5.55180158	      9.72669797	      1.96353564	      5.10064857	     -2.01485209	    -12.28861401	     17.76059201	     17.76059201	     19.18051612	    -11.51684689	     -0.11748663	     -9.49590849	      6.74728091	      1.40145444	    -19.18478352	    -11.24997881	    -18.47217099	     29.41349618	     47.18337204	      0.00000000	      0.00000000	     40.13770507	    -23.57558354	     -6.29672079	     70.24118591	     47.59610742	      0.00000000	      0.00000000
     56.24000000	     -5.38212837	     -2.74747386	    -10.58994121	      0.95975809	      0.92162962	      0.43370249	     25.53549060	     -0.58646883	     -7.65147532	     15.86159349	     15.86159349	      4.00631189	      9.72675631	     -1.69850860	      4.20406717	     -2.07406306	    -12.62572239	     17.25204124	     17.25204124	     19.33565880	    -11.11830335	     -0.50155955	     -9.53832815	      6.84079857	      1.21606367	    -18.42090913	    -11.32746201	    -18.26091739	     28.81114802	     47.13771340	      0.00000000	      0.00000000	     39.76223584	    -23.53294022	     -8.28713319	     72.36095444	     47.78179345	      0.00000000	      0.00000000
     56.26000000	     -5.38895269	     -2.74420945	    -10.68076823	      0.96089918	      0.92078086	      0.43771104	     25.35776191	     -0.34976038	     -7.52328753	     16.42129939	     16.42129939	      3.88206335	      9.37254425	     -2.08133988	      3.49776539	     -2.20611514	    -12.66887702	     16.96023673	     16.96023673	     19.63625823	    -11.06038803	     -0.45781652	     -9.44130618	      7.02800163	      1.44659705	    -18.09777884	    -11.37032795	    -18.21458763	     28.79561620	     47.13139354	      0.00000000	      0.00000000	     40.00057475	    -23.49958558	     -8.40136005	     72.67577567	     47.79803331	      0.00000000	      0.00000000
